<svg width="356" height="304" viewBox="0 0 356 304" fill="none" xmlns="http://www.w3.org/2000/svg">
<path fill-rule="evenodd" clip-rule="evenodd" d="M120.246 7.1284C159.423 -2.37613 200.552 -2.37613 239.729 7.1284L246.249 8.71019C314.997 25.3889 360.994 85.7421 355.335 151.845L354.156 165.619C350.491 208.44 321.378 245.711 278.826 262.06C273.827 263.98 269.627 267.358 266.851 271.689L256.997 287.067C252.767 293.666 246.06 298.561 238.179 300.799L237.727 300.928C236.23 301.353 234.666 301.538 233.102 301.474C225.657 301.172 219.341 296.273 217.658 289.495L217.326 288.155C215.864 282.266 206.915 282.178 205.321 288.037L205.057 289.008C203.096 296.216 196.597 301.56 188.69 302.466L183.367 303.075C181.536 303.285 179.685 303.285 177.855 303.075L171.93 302.397C164.386 301.533 158.185 296.434 156.314 289.557L155.942 288.189C154.421 282.599 145.84 282.808 144.632 288.464L144.441 289.361C142.987 296.172 136.736 301.175 129.303 301.477C127.781 301.539 126.259 301.359 124.802 300.945L124.2 300.774C116.357 298.547 109.628 293.767 105.237 287.304L94.7064 271.805C91.7149 267.402 87.2614 264.034 82.0267 262.217C35.2111 245.961 3.30838 205.188 0.959675 158.609L0.355398 146.625C-2.84987 83.0588 42.0887 26.0898 108.062 10.0842L120.246 7.1284ZM90.1915 165.9C116.582 165.9 137.975 145.928 137.975 121.291C137.975 96.6538 116.582 76.6816 90.1915 76.6816C63.8015 76.6816 42.4081 96.6538 42.4081 121.291C42.4081 145.928 63.8015 165.9 90.1915 165.9ZM269.784 165.9C296.174 165.9 317.567 145.928 317.567 121.291C317.567 96.6539 296.174 76.6816 269.784 76.6816C243.393 76.6816 222 96.6539 222 121.291C222 145.928 243.393 165.9 269.784 165.9Z" fill="white"/>
</svg>
